HIERARCHY
ROOT root
{
	OFFSET 0.000000 0.000000 0.000000
	CHANNELS 6 Xposition Yposition Zposition Zrotation Yrotation Xrotation
	JOINT lhip
	{
		OFFSET 0.058581 -0.082280 -0.017664
		CHANNELS 3 Zrotation Yrotation Xrotation
		JOINT lknee
		{
			OFFSET 0.043451 -0.386469 0.008037
			CHANNELS 3 Zrotation Yrotation Xrotation
			JOINT lankle
			{
				OFFSET -0.014790 -0.426874 -0.037428
				CHANNELS 3 Zrotation Yrotation Xrotation
				JOINT ltoe
				{
					OFFSET 0.041054 -0.060286 0.122042
					CHANNELS 3 Zrotation Yrotation Xrotation
					End Site
					{
						OFFSET 0.000000 0.000000 0.000000
					}
				}
			}
		}
	}
	JOINT rhip
	{
		OFFSET -0.060310 -0.090513 -0.013543
		CHANNELS 3 Zrotation Yrotation Xrotation
		JOINT rknee
		{
			OFFSET -0.043257 -0.383688 -0.004843
			CHANNELS 3 Zrotation Yrotation Xrotation
			JOINT rankle
			{
				OFFSET 0.019056 -0.420046 -0.034562
				CHANNELS 3 Zrotation Yrotation Xrotation
				JOINT rtoe
				{
					OFFSET -0.034840 -0.062106 0.130323
					CHANNELS 3 Zrotation Yrotation Xrotation
					End Site
					{
						OFFSET 0.000000 0.000000 0.000000
					}
				}
			}
		}
	}
	JOINT lowerback
	{
		OFFSET 0.004439 0.124404 -0.038385
		CHANNELS 3 Zrotation Yrotation Xrotation
		JOINT upperback
		{
			OFFSET 0.004488 0.137956 0.026820
			CHANNELS 3 Zrotation Yrotation Xrotation
			JOINT chest
			{
				OFFSET -0.002265 0.056032 0.002855
				CHANNELS 3 Zrotation Yrotation Xrotation
				JOINT lowerneck
				{
					OFFSET -0.013390 0.211636 -0.033468
					CHANNELS 3 Zrotation Yrotation Xrotation
					JOINT upperneck
					{
						OFFSET 0.010113 0.088937 0.050410
						CHANNELS 3 Zrotation Yrotation Xrotation
						End Site
						{
							OFFSET 0.000000 0.000000 0.000000
						}
					}
				}
				JOINT lclavicle
				{
					OFFSET 0.071702 0.114000 -0.018898
					CHANNELS 3 Zrotation Yrotation Xrotation
					JOINT lshoulder
					{
						OFFSET 0.122921 0.045205 -0.019046
						CHANNELS 3 Zrotation Yrotation Xrotation
						JOINT lelbow
						{
							OFFSET 0.255332 -0.015649 -0.022946
							CHANNELS 3 Zrotation Yrotation Xrotation
							JOINT lwrist
							{
								OFFSET 0.265709 0.012698 -0.007375
								CHANNELS 3 Zrotation Yrotation Xrotation
								End Site
								{
									OFFSET 0.000000 0.000000 0.000000
								}
							}
						}
					}
				}
				JOINT rclavicle
				{
					OFFSET -0.082954 0.112472 -0.023707
					CHANNELS 3 Zrotation Yrotation Xrotation
					JOINT rshoulder
					{
						OFFSET -0.113228 0.046853 -0.008472
						CHANNELS 3 Zrotation Yrotation Xrotation
						JOINT relbow
						{
							OFFSET -0.260127 -0.014369 -0.031269
							CHANNELS 3 Zrotation Yrotation Xrotation
							JOINT rwrist
							{
								OFFSET -0.269108 0.006794 -0.006027
								CHANNELS 3 Zrotation Yrotation Xrotation
								End Site
								{
									OFFSET 0.000000 0.000000 0.000000
								}
							}
						}
					}
				}
			}
		}
	}
}
MOTION
Frames: 16
Frame Time: 0.033333
0.661083 -0.137879 0.985811 -163.827603 21.619763 42.829983 29.186210 5.924198 28.584935 -11.296969 -25.402112 39.425083 -3.311167 3.883908 -28.148970 0.000000 -0.000000 0.000000 -19.530058 -7.073504 -66.719313 -2.567690 -13.336919 34.977817 10.250605 -8.350581 4.734975 0.000000 -0.000000 0.000000 -3.234269 -12.352678 45.531741 -0.294852 -0.555799 20.817888 1.417956 -4.258409 -3.705321 -4.189654 5.537409 18.149725 13.109561 1.925927 -6.130274 -21.790462 -13.614798 5.087240 -26.632536 -22.808769 -2.745355 52.330362 -72.206374 -38.708724 20.232714 -10.298238 -9.891676 28.748021 8.586302 14.164014 43.413483 -9.681405 0.524263 -21.745636 35.915775 -15.454159 -7.551675 6.127189 3.136403 
0.656345 -0.142381 0.981113 -162.837845 21.249337 42.533928 27.618389 6.280817 28.480999 -10.418647 -25.304515 40.176934 -3.589731 3.307179 -28.385053 0.000000 -0.000000 0.000000 -18.142417 -6.945582 -60.532040 -2.870828 -12.677906 19.614292 11.328350 -7.341408 8.021152 0.000000 -0.000000 0.000000 -2.993465 -11.981079 45.889241 -0.347580 -1.887155 21.221013 2.082057 -4.722672 -3.272277 -4.911724 5.310605 19.870404 13.508446 3.112193 -5.560725 -22.210284 -12.676919 5.776825 -28.624691 -22.887167 -2.948006 55.178387 -71.685351 -40.520286 20.196465 -10.161559 -10.384636 28.208491 7.019108 14.307765 46.392759 -11.815856 0.170570 -21.578310 34.473616 -14.867764 -7.293724 5.391451 1.723326 
0.651992 -0.142179 0.979616 -162.094067 20.782582 43.454960 24.988062 5.443403 27.988027 -10.412226 -24.961490 40.310148 -2.282687 5.559360 -28.674731 0.000000 -0.000000 0.000000 -18.839690 -6.245807 -58.050943 -2.178207 -14.013917 23.467893 11.300312 -7.634040 8.956192 0.000000 -0.000000 0.000000 -2.455215 -12.770418 44.363474 -0.306981 -2.158292 19.594535 1.559608 -5.142449 -1.856381 -4.887012 4.149106 20.214455 12.893446 3.811935 -3.567514 -22.922498 -10.929591 5.930071 -32.043266 -22.071243 -1.558320 53.520509 -71.445493 -37.911267 18.753385 -10.000472 -10.361065 27.260379 4.603143 13.135679 50.171810 -14.361429 0.094426 -20.731891 31.916181 -13.277621 -3.640258 4.062539 1.815791 
0.648502 -0.140268 0.980021 -162.332050 19.159376 45.326541 21.476219 4.649673 27.591808 -10.347240 -23.433045 38.863786 -0.197705 8.238987 -28.173512 0.000000 -0.000000 0.000000 -18.641524 -3.715951 -58.038673 -2.067835 -12.339130 35.809512 10.321975 -8.731650 9.674845 0.000000 -0.000000 0.000000 -2.673694 -13.446080 40.849808 -0.338398 -1.515872 18.520991 0.507807 -5.159980 -0.523905 -4.451067 2.848022 18.340052 11.726195 4.372068 -1.590098 -24.021978 -7.963019 5.373642 -35.177473 -20.412865 0.613267 51.424500 -72.198652 -35.342863 16.556446 -10.385973 -10.319117 26.770920 2.370698 11.926421 53.307871 -16.269471 1.196734 -20.123561 28.279207 -11.694701 1.917644 3.264218 3.132219 
0.644695 -0.138285 0.984747 -163.309368 16.691031 47.437166 17.727035 4.435430 27.906419 -9.796728 -21.737615 35.450523 1.342454 10.618495 -26.775138 0.000000 -0.000000 0.000000 -16.728217 -0.772173 -56.738628 -1.799718 -10.397564 47.244608 9.574539 -9.244473 9.331111 0.000000 -0.000000 0.000000 -3.322964 -13.783279 37.154471 -0.662731 -0.649508 17.446430 -0.510682 -4.780805 0.428824 -3.792994 1.960235 16.259553 10.591725 4.982292 -0.475960 -25.398317 -4.352695 4.241707 -37.873195 -17.770738 3.164707 49.292205 -73.596058 -33.056613 14.910322 -10.418886 -10.931225 26.920354 0.298400 10.385807 55.018432 -17.665779 2.858611 -19.092101 24.931558 -9.688327 5.456974 2.755482 5.550281 
0.641899 -0.136193 0.992537 -164.669317 14.644672 50.101572 14.765815 4.326472 27.630890 -9.098238 -20.072299 31.518439 2.529446 12.247987 -25.205779 0.000000 -0.000000 0.000000 -13.789675 1.849431 -53.254149 -2.033426 -9.692530 55.179085 8.271991 -9.677894 7.917350 0.000000 -0.000000 0.000000 -3.358821 -13.900701 32.921730 -0.828158 -0.065499 15.888756 -1.175867 -4.236235 1.512401 -3.073965 1.504397 14.863325 9.444716 5.702244 0.942043 -26.389696 -0.862029 3.204842 -41.135970 -14.751453 5.137852 46.012621 -74.838419 -29.023778 12.995005 -10.330675 -10.829037 26.543751 -1.569641 9.242774 56.734362 -18.076670 3.620666 -18.046584 22.342702 -8.075033 7.161518 2.275446 7.257615 
0.639295 -0.134630 1.000207 -165.405789 13.014197 53.581027 11.712074 3.731544 26.160700 -8.179012 -18.410722 27.717079 3.585129 13.580992 -23.444935 0.000000 -0.000000 0.000000 -11.680737 3.651909 -48.561557 -2.094621 -9.908289 60.089072 7.415123 -10.171404 7.526284 0.000000 -0.000000 0.000000 -2.981599 -13.751466 28.451486 -0.653914 0.053315 13.919275 -1.533494 -3.988426 2.580354 -2.502894 0.921292 14.173100 8.245851 6.451719 1.957804 -27.028014 2.304560 2.671567 -44.299783 -11.854669 6.544826 42.152448 -75.908905 -24.171677 10.163036 -10.655937 -10.729443 25.815419 -3.702835 8.143877 58.382063 -18.053756 3.952414 -17.763124 21.377675 -7.638841 9.240736 2.006095 7.041606 
0.637100 -0.133942 1.006519 -165.970349 11.715160 57.602372 8.702913 2.477319 23.751097 -7.317582 -16.732779 24.336547 4.597306 14.877945 -21.580838 0.000000 -0.000000 0.000000 -9.796239 5.353609 -43.677166 -1.791104 -10.014721 62.044258 7.149231 -10.895260 7.735216 0.000000 -0.000000 0.000000 -2.303062 -13.389445 23.922780 -0.229049 0.027520 11.919794 -1.829589 -3.720605 3.565940 -2.071756 0.213007 13.626868 7.346139 6.801599 2.354664 -27.322765 5.095836 2.295382 -46.902437 -9.663569 7.940982 36.751910 -76.860655 -18.487435 9.255504 -10.722426 -11.398033 25.377209 -5.898135 7.097379 59.336676 -18.058963 4.754087 -17.629403 22.299738 -7.529122 9.315739 2.459891 6.110814 
0.635003 -0.133521 1.010952 -167.039218 10.267736 61.727003 5.904757 1.325517 21.114041 -6.528229 -14.959139 21.019864 5.524715 16.055445 -19.575105 0.000000 -0.000000 0.000000 -7.703372 6.890507 -39.145528 -1.432517 -9.144172 62.087665 6.912263 -11.107710 7.015398 0.000000 -0.000000 0.000000 -1.498648 -12.638889 19.352023 0.105421 0.063793 10.493761 -2.091592 -3.201415 4.061483 -1.681790 -0.381741 12.871134 6.599270 6.702733 2.452783 -27.293749 7.226204 1.897953 -49.035384 -7.490448 9.166580 31.876696 -77.760102 -13.598225 9.123246 -10.663315 -11.928785 24.902279 -7.292451 6.467198 60.263840 -17.946079 5.435853 -17.725313 24.207325 -7.613301 8.071645 2.921022 5.131881 
0.633978 -0.132643 1.014382 -168.830397 9.040456 65.365012 3.714377 0.267490 18.803044 -5.586558 -12.915823 18.012373 6.216739 17.239210 -17.941864 0.000000 -0.000000 0.000000 -5.271317 8.350675 -34.389737 -1.451501 -8.444402 60.819445 6.396052 -11.589747 5.231336 0.000000 -0.000000 0.000000 -0.897840 -11.733898 15.423261 0.473336 0.412837 9.244375 -2.107692 -2.489790 4.418408 -1.198520 -0.725037 12.163069 5.860771 6.609822 2.808444 -26.937843 9.135938 1.510185 -50.935299 -5.787185 10.161515 26.096378 -78.488070 -7.593111 9.040590 -10.534393 -12.692083 24.433589 -8.033560 6.104508 60.594176 -17.135250 6.423129 -17.706946 25.969680 -7.158302 7.124271 3.570813 3.908771 
0.633672 -0.131894 1.017023 -170.844900 7.993671 68.482197 2.079606 -0.483376 16.942189 -4.604751 -10.894573 15.043303 6.286017 17.901855 -16.511127 0.000000 -0.000000 0.000000 -2.879437 9.072853 -29.333910 -1.452254 -7.099942 58.558485 6.359100 -11.180218 4.377255 0.000000 -0.000000 0.000000 -0.514502 -10.518541 12.349879 0.861234 0.567879 8.053465 -1.870073 -1.898340 4.548638 -0.915989 -0.943839 11.854630 5.148828 6.566966 3.130615 -26.711254 10.377996 1.358666 -52.284197 -4.112756 10.892136 22.566693 -79.097970 -3.928668 8.715074 -10.538033 -13.519388 24.214406 -8.061389 5.646694 59.955467 -16.025436 7.531018 -17.391935 27.931294 -6.443733 6.206478 4.058276 3.202874 
0.634169 -0.131212 1.019054 -172.859294 7.122266 71.250178 0.911480 -0.862241 15.234223 -3.882965 -9.269016 12.614089 6.444662 18.465334 -15.080320 0.000000 -0.000000 0.000000 -0.832981 8.967344 -24.487703 -1.083122 -5.227430 55.896566 6.408087 -10.757930 3.022848 0.000000 -0.000000 0.000000 -0.338140 -9.282834 9.820150 1.288147 0.562133 6.973931 -1.570765 -1.378948 4.615928 -0.821771 -0.772394 11.680335 4.507139 6.534702 3.517840 -26.422218 11.413992 1.060159 -53.112913 -2.897316 11.486657 16.629391 -79.489182 1.829175 8.821510 -10.037830 -14.510972 24.345836 -7.991947 5.035879 58.412565 -14.461984 8.629045 -16.914344 30.259762 -5.828546 4.866907 4.620522 3.060779 
0.635550 -0.131152 1.020474 -174.702235 6.594016 73.871364 0.394694 -0.772770 13.266375 -3.236799 -7.772381 10.797130 6.446785 18.487297 -14.129789 0.000000 -0.000000 0.000000 0.827973 8.425906 -20.295745 -0.339626 -3.252301 53.095650 6.192292 -10.025394 1.514120 0.000000 -0.000000 0.000000 -0.077834 -8.257435 7.737496 1.694158 0.373502 6.014621 -1.361341 -0.944752 4.286371 -0.801984 -0.707978 11.381901 3.901613 6.324539 4.134783 -26.124210 12.036058 0.832693 -53.430914 -1.795401 11.746096 10.383923 -79.670428 8.101592 9.101446 -9.794569 -15.303267 24.556783 -7.757385 4.737596 56.980078 -12.565396 9.203238 -16.929634 33.021242 -5.866521 3.145029 5.410607 2.553469 
0.637059 -0.131896 1.021385 -176.441161 6.187296 76.168983 0.068225 -0.772427 11.485692 -2.823678 -6.524651 9.230537 6.343367 18.464019 -13.242439 0.000000 -0.000000 0.000000 1.897127 7.871598 -16.581950 0.370673 -1.662796 49.870462 6.112612 -9.207696 -0.486390 0.000000 -0.000000 0.000000 0.153140 -7.250373 5.971229 1.990220 0.142060 5.425510 -1.194215 -0.615626 4.030996 -0.725863 -0.379826 11.149148 3.439660 6.096128 4.344826 -25.816236 12.048293 0.635959 -53.608995 -1.162378 11.972208 5.934626 -79.427321 12.525932 9.617660 -9.500365 -15.742043 24.669099 -7.265899 4.541093 55.974754 -10.605869 9.558057 -17.544350 36.397591 -6.629714 1.273759 5.881410 1.264988 
0.638650 -0.133032 1.022145 -178.088509 5.926371 78.063261 -0.088486 -0.740972 9.824018 -2.563348 -5.281818 8.263313 6.087143 18.609955 -12.651468 0.000000 -0.000000 0.000000 2.666963 7.154114 -13.165286 0.845389 -0.132358 46.244550 5.994168 -8.131565 -2.258517 0.000000 -0.000000 0.000000 0.560655 -6.289235 4.784562 2.054370 -0.104417 4.831351 -1.154729 -0.302653 3.824740 -0.636538 -0.273426 10.733035 3.193028 5.872912 4.461335 -25.505464 11.543677 0.309786 -53.449665 -0.600861 12.062531 2.083660 -79.137972 16.306778 10.121073 -9.330858 -15.978988 24.501858 -6.606181 4.255121 55.469967 -8.886100 9.706699 -18.129794 40.248148 -7.504175 -0.646723 6.091842 -0.342398 
0.641423 -0.133810 1.022536 -179.579073 5.887838 79.311579 0.345691 0.296882 8.382500 -2.554595 -4.438589 8.227390 5.884701 17.909702 -12.662011 0.000000 -0.000000 0.000000 3.532249 5.808094 -9.922495 0.738031 1.526906 42.683366 5.856656 -6.461950 -4.015826 0.000000 -0.000000 0.000000 0.718068 -5.216652 4.057465 2.524996 -0.164960 4.547631 -1.346661 -0.109834 4.281623 0.868143 0.836406 8.905211 1.911651 3.991574 5.181762 -25.370995 11.444677 -0.164703 -53.103697 -1.829017 13.616475 2.401163 -78.207775 16.659705 11.699263 -8.788367 -17.561491 24.880069 -7.191236 3.208620 54.140988 -6.545142 11.610680 -18.969216 44.270277 -6.399254 -0.444852 6.499449 -4.541213 
